<?xml version="1.0" standalone="no"?>
<!DOCTYPE svg PUBLIC "-//W3C//DTD SVG 20010904//EN"
 "http://www.w3.org/TR/2001/REC-SVG-20010904/DTD/svg10.dtd">
<svg version="1.0" xmlns="http://www.w3.org/2000/svg"
 width="640.000000pt" height="640.000000pt" viewBox="0 0 640.000000 640.000000"
 preserveAspectRatio="xMidYMid meet">
<metadata>
Created by potrace 1.14, written by Peter Selinger 2001-2017
</metadata>
<g transform="translate(0.000000,640.000000) scale(0.100000,-0.100000)"
fill="#000000" stroke="none">
<path d="M440 6393 c8 -3 17 -9 20 -13 3 -3 23 -15 45 -27 246 -126 287 -165
272 -259 -5 -28 -37 -80 -37 -59 0 4 -14 -7 -31 -24 -39 -39 -33 -64 13 -60
46 4 72 23 94 69 10 22 22 40 26 40 7 0 25 50 33 89 2 12 0 19 -6 16 -5 -4 -9
2 -9 12 0 10 -7 29 -16 41 -17 24 -144 109 -156 104 -5 -1 -8 2 -8 6 0 5 -19
17 -42 28 -24 10 -49 24 -56 31 -9 8 -40 13 -85 12 -40 0 -65 -3 -57 -6z"/>
<path d="M2945 6385 c-38 -7 -88 -16 -110 -20 -22 -4 -71 -22 -110 -41 -98
-46 -186 -76 -202 -70 -9 4 -11 1 -7 -6 5 -7 -1 -9 -20 -4 -16 4 -26 2 -26 -4
0 -6 4 -8 10 -5 6 3 7 -1 3 -10 -4 -13 -8 -14 -14 -4 -6 10 -12 10 -27 -4 -10
-9 -24 -17 -30 -17 -7 0 -12 -5 -12 -11 0 -5 -5 -7 -10 -4 -6 4 -17 1 -25 -5
-8 -7 -15 -10 -15 -6 0 4 -11 -1 -25 -10 -14 -9 -32 -14 -40 -10 -8 3 -15 0
-15 -5 0 -6 -9 -9 -19 -6 -12 3 -22 -1 -25 -10 -4 -8 -13 -13 -20 -10 -8 3
-39 -2 -68 -13 -29 -10 -56 -16 -61 -13 -4 2 -6 -1 -5 -9 2 -7 -4 -12 -13 -10
-9 1 -24 -7 -34 -18 -10 -11 -24 -20 -31 -20 -6 0 -40 -28 -74 -62 -48 -47
-64 -58 -71 -47 -7 11 -9 11 -9 -3 0 -10 -4 -18 -10 -18 -5 0 -10 -7 -10 -16
0 -17 -39 -73 -41 -58 -1 5 0 23 1 39 3 52 -8 22 -13 -33 -3 -29 -10 -58 -16
-66 -6 -7 -8 -16 -4 -19 3 -4 -1 -7 -10 -7 -10 0 -17 -4 -17 -10 0 -5 5 -10
12 -10 9 0 9 -3 0 -12 -7 -7 -12 -24 -12 -38 0 -16 -11 -36 -31 -53 -18 -15
-30 -29 -28 -30 2 -1 13 -7 24 -13 23 -13 31 -73 12 -87 -9 -6 -9 -10 1 -14
15 -6 16 -33 1 -33 -5 0 -7 -5 -4 -10 4 -6 1 -18 -7 -27 -9 -12 -9 -15 0 -9 7
4 12 2 12 -8 0 -8 -9 -18 -21 -21 -15 -5 -18 -10 -10 -18 16 -16 13 -27 -6
-27 -13 0 -14 -3 -6 -8 10 -6 10 -16 1 -45 -6 -20 -15 -34 -21 -30 -5 3 -6 -3
-2 -16 4 -12 -1 -38 -11 -61 -17 -37 -34 -53 -34 -30 0 6 -5 10 -10 10 -6 0
-5 -8 2 -20 9 -14 10 -23 2 -28 -6 -4 -14 -15 -17 -26 -6 -14 -10 -16 -21 -6
-16 12 -17 51 -3 61 5 4 11 24 13 45 2 26 0 33 -6 24 -5 -8 -7 -23 -4 -32 5
-16 -5 -23 -27 -20 -4 1 -6 -18 -5 -41 l1 -42 -52 -3 c-29 -2 -53 1 -53 6 0 5
-16 17 -35 26 -19 9 -35 22 -35 28 0 5 -7 8 -15 4 -9 -3 -15 0 -15 10 0 10 -8
14 -22 12 -17 -2 -24 3 -26 20 -4 23 -22 31 -22 10 -1 -9 -5 -8 -13 3 -7 9
-17 14 -23 12 -6 -2 -23 8 -37 21 -15 14 -27 22 -27 19 0 -3 -8 1 -17 8 -14
12 -16 12 -9 -1 4 -8 1 -6 -8 4 -8 10 -13 22 -11 26 2 4 -7 5 -20 2 -15 -2
-25 0 -25 7 0 6 -10 11 -21 11 -12 0 -27 7 -33 15 -7 9 -29 17 -53 18 -29 1
-39 5 -36 14 6 16 -13 17 -23 2 -5 -8 -8 -8 -14 0 -4 7 -24 14 -46 16 -21 2
-81 16 -133 30 -51 14 -95 24 -98 22 -2 -3 4 -22 15 -44 13 -24 23 -70 27
-123 3 -47 9 -93 12 -104 8 -29 10 -145 2 -140 -4 2 -10 -2 -13 -8 -3 -7 -5
-2 -4 12 1 14 -4 36 -10 50 -7 14 -21 83 -33 155 -22 140 -54 219 -93 231 -21
7 -213 93 -356 161 -120 56 -140 64 -140 53 0 -5 5 -10 11 -10 29 0 378 -181
408 -212 38 -37 61 -86 67 -138 2 -19 8 -55 14 -80 5 -25 12 -76 15 -115 3
-38 8 -86 11 -105 4 -19 4 -32 1 -29 -4 3 -22 87 -41 186 -30 158 -58 254 -72
241 -2 -3 3 -24 11 -49 14 -42 75 -388 75 -425 0 -15 -5 -13 -30 11 -22 23
-33 48 -44 105 -15 70 -66 385 -66 403 0 5 -4 6 -9 3 -4 -3 -2 -40 5 -83 8
-43 23 -144 34 -224 l21 -146 -29 -84 c-35 -100 -53 -139 -62 -139 -5 0 -7 -6
-6 -12 2 -25 -67 -188 -77 -181 -6 4 -8 0 -4 -10 4 -10 2 -17 -4 -17 -6 0 -8
-7 -5 -16 3 -8 2 -12 -4 -9 -6 3 -11 -2 -11 -12 -1 -10 -2 -22 -4 -28 -1 -5
-3 -16 -3 -23 -1 -7 -6 -10 -12 -7 -5 3 -7 0 -5 -8 3 -7 -10 -53 -29 -103 -51
-134 -51 -134 -26 -134 12 0 19 -4 16 -9 -3 -5 3 -20 14 -34 44 -56 18 -87
-80 -95 l-75 -7 -2 -1580 -2 -1580 36 39 c23 25 32 41 24 44 -9 3 -8 11 5 30
l17 27 -28 -25 c-16 -14 -25 -20 -21 -13 4 7 -1 27 -10 44 l-16 32 43 37 c23
21 56 46 73 55 36 21 27 11 -31 -34 -24 -18 -43 -36 -43 -39 0 -4 9 -13 20
-20 17 -10 23 -10 35 2 13 12 13 16 0 26 -12 10 -15 10 -15 0 0 -8 -3 -11 -6
-7 -3 3 -3 11 1 17 5 8 13 6 26 -6 13 -12 29 -15 53 -11 24 4 39 1 47 -9 6 -8
19 -14 29 -14 21 0 33 -43 17 -59 -14 -14 -27 -14 -27 0 0 23 -42 69 -64 69
-23 0 -71 -29 -49 -30 6 0 15 5 18 10 3 6 17 10 31 10 21 0 24 -5 24 -33 0
-23 -8 -41 -24 -56 -34 -32 -56 -82 -56 -125 0 -30 5 -38 26 -47 15 -5 27 -8
28 -7 1 2 9 19 18 38 14 31 202 260 213 260 2 0 14 -4 28 -9 18 -7 26 -5 35
10 7 10 21 19 31 19 10 0 24 7 31 15 7 9 15 13 17 11 7 -7 -60 -65 -74 -66 -7
0 -17 -9 -23 -20 -12 -22 1 -55 29 -78 20 -15 135 -10 156 8 10 8 15 9 15 2 0
-6 -20 -25 -45 -43 -50 -36 -61 -58 -45 -89 15 -27 60 -26 133 4 61 25 63 25
47 -5 -8 -15 -7 -19 4 -19 8 0 17 6 19 13 4 8 6 7 6 -3 0 -8 -20 -30 -44 -48
-45 -32 -59 -67 -32 -78 7 -2 48 14 91 36 42 22 82 38 87 35 19 -12 8 -44 -26
-78 -34 -34 -46 -67 -24 -67 8 0 7 -5 -1 -15 -10 -12 -10 -19 -2 -27 16 -16
61 17 87 65 20 36 52 54 68 38 5 -5 0 -14 -12 -21 -48 -25 -79 -118 -49 -148
9 -9 3 -24 -26 -67 -38 -54 -39 -55 -88 -55 -74 0 -293 36 -394 65 -163 47
-360 160 -384 219 -8 18 -9 17 -9 -11 -1 -26 7 -37 41 -62 43 -32 42 -41 -2
-16 -14 8 -28 14 -32 15 -5 0 -8 -142 -8 -315 l0 -315 350 0 c308 0 350 2 350
15 0 13 4 14 20 5 18 -10 123 -5 141 6 4 2 9 -3 13 -11 5 -13 176 -15 1367
-15 l1361 0 106 93 c172 149 371 321 471 406 30 25 78 66 106 91 28 25 86 74
129 110 43 36 83 70 90 76 13 12 723 604 781 651 22 18 69 56 105 84 36 28 72
58 80 65 19 17 122 102 135 112 21 15 122 98 160 132 22 19 58 49 79 65 22 17
56 44 75 60 41 34 79 65 271 220 74 59 139 111 143 115 4 4 2 7 -5 7 -138 8
-193 14 -196 23 -2 5 -8 8 -13 5 -5 -4 -6 1 -3 10 5 11 2 16 -7 14 -8 -1 -25
3 -39 9 -24 10 -24 11 10 12 l35 2 -47 21 c-42 18 -48 24 -48 51 0 23 -8 37
-33 54 l-32 23 50 -7 c57 -8 103 -28 112 -50 3 -8 6 -31 7 -52 l1 -37 65 -3
c36 -2 98 -9 138 -16 l72 -12 -1 325 c0 310 -1 324 -16 276 -14 -44 -16 -48
-24 -27 -5 12 -5 30 -2 39 4 9 2 14 -3 11 -5 -3 -19 -2 -31 3 -17 6 -23 16
-23 41 -1 36 -24 76 -35 59 -3 -6 -1 -11 5 -11 6 0 8 -5 5 -10 -13 -21 -26 3
-24 46 3 46 13 57 24 25 8 -27 38 -38 31 -11 -3 11 -9 30 -12 41 -4 14 -2 19
5 15 13 -8 13 10 1 39 -8 19 -9 19 -9 -2 -1 -27 -11 -53 -20 -53 -10 0 -11
112 -1 125 4 6 7 24 7 40 0 17 5 67 11 113 32 222 49 375 56 502 4 70 -1 44
-18 -95 -32 -251 -48 -345 -59 -345 -5 0 -7 9 -4 20 3 10 -1 24 -9 31 -15 12
-20 34 -6 25 4 -3 9 12 10 32 4 70 10 127 12 130 1 1 3 11 4 21 0 11 5 23 10
28 5 4 7 3 3 -2 -3 -6 -2 -17 4 -25 7 -13 9 -12 9 2 0 33 -11 49 -26 37 -19
-16 -17 1 3 23 10 11 12 18 4 18 -8 0 -9 5 -1 19 13 26 13 40 -1 21 -9 -12 -9
-11 -4 5 4 11 8 26 8 33 0 6 3 12 7 12 11 0 7 154 -5 163 -6 4 -6 10 3 15 7 5
14 25 15 45 2 20 7 40 11 44 5 5 6 2 1 -6 -5 -8 -4 -12 1 -8 14 8 4 97 -11 97
-7 0 -16 6 -19 13 -3 6 -4 3 -1 -8 2 -11 7 -31 10 -45 3 -16 -2 -34 -15 -50
l-20 -25 5 50 c3 28 8 65 11 83 3 22 2 32 -5 28 -6 -4 -8 7 -4 31 8 56 25 68
18 13 -5 -38 -4 -41 5 -20 9 20 13 22 20 10 6 -9 10 -10 10 -3 0 6 3 19 7 29
4 11 3 15 -5 10 -6 -3 -13 -2 -17 4 -3 5 -1 10 4 10 6 0 11 5 11 11 0 5 -4 8
-9 5 -4 -3 -6 6 -3 19 2 15 0 25 -7 25 -6 0 -11 -9 -11 -20 0 -11 -4 -20 -10
-20 -6 0 -9 24 -9 55 1 42 7 61 24 79 19 20 21 27 10 36 -10 8 -15 4 -23 -17
-9 -25 -10 -23 -11 25 -1 34 5 62 16 78 18 28 20 106 4 204 -5 30 -6 61 -3 70
3 8 -5 4 -17 -10 l-22 -25 7 25 c4 14 11 27 15 28 5 2 9 13 9 23 0 11 -4 18
-8 15 -5 -3 -8 9 -8 27 0 18 -3 48 -8 67 -8 33 -7 34 8 15 15 -19 16 -17 1 19
-8 21 -15 40 -15 43 0 2 -4 2 -9 -1 -5 -4 -7 3 -4 14 5 19 7 20 23 5 27 -24
78 -126 110 -218 l28 -82 1 140 0 140 -51 39 c-28 21 -53 47 -56 58 -3 14 -7
16 -12 8 -4 -7 -13 -9 -19 -6 -6 4 -9 11 -7 15 5 7 -3 8 -59 13 -16 2 -35 9
-41 17 -6 8 -17 12 -25 9 -8 -3 -31 3 -51 14 -21 10 -38 15 -38 11 0 -4 -5 -2
-12 5 -7 7 -20 12 -30 12 -10 0 -18 4 -18 9 0 5 -19 12 -42 16 -24 4 -50 10
-58 12 -114 29 -471 41 -777 26 -103 -5 -123 -9 -124 -22 0 -10 -2 -12 -6 -3
-2 6 -13 12 -23 12 -10 0 -22 5 -25 10 -4 6 -11 8 -16 5 -12 -8 -12 -45 0 -45
5 0 15 -16 21 -35 6 -19 17 -35 24 -35 6 0 24 -24 40 -52 20 -38 26 -45 21
-23 -4 17 -8 36 -8 44 0 8 -9 23 -20 34 -21 21 -18 31 6 21 9 -3 19 -22 22
-42 3 -21 17 -72 30 -115 14 -43 25 -85 25 -93 0 -8 11 -37 25 -66 14 -28 25
-58 25 -66 0 -8 10 -35 23 -61 13 -25 26 -62 30 -81 l6 -35 -14 30 c-8 17 -14
35 -15 42 0 6 -4 14 -9 17 -5 4 0 -24 11 -61 34 -111 38 -115 35 -28 -3 53 -9
89 -20 105 -18 28 -49 111 -44 117 2 1 14 -19 27 -46 15 -32 27 -48 36 -44 11
4 14 -13 14 -83 1 -99 7 -135 43 -244 26 -80 51 -210 52 -272 0 -21 3 -38 7
-38 4 0 10 -9 13 -21 4 -11 40 -57 81 -102 40 -44 71 -83 69 -86 -3 -2 -12 4
-21 15 -15 18 -15 18 -11 -3 3 -13 4 -23 3 -23 -10 0 -46 40 -46 50 0 14 -58
70 -72 70 -5 0 -39 20 -76 44 -37 25 -79 48 -94 51 -16 4 -28 10 -28 14 0 10
64 7 72 -4 5 -6 8 -5 8 3 0 9 7 11 21 7 15 -5 19 -4 15 4 -4 6 -18 11 -31 11
-17 0 -23 4 -19 14 3 9 -3 17 -15 21 -12 3 -21 11 -21 16 0 12 24 11 37 -2 7
-7 12 -6 17 6 3 9 2 13 -4 10 -6 -3 -14 5 -19 18 -9 24 -65 77 -81 77 -5 0
-23 13 -40 30 -28 27 -30 35 -7 31 4 -1 5 10 3 24 -3 14 -1 25 4 25 5 0 6 8 3
18 -6 15 -5 16 11 2 11 -8 14 -16 7 -18 -8 -3 -8 -9 0 -24 6 -11 13 -17 16
-14 3 2 21 -16 41 -42 20 -26 42 -53 49 -61 8 -7 27 -40 44 -73 17 -33 33 -58
36 -55 11 12 -54 170 -67 162 -4 -3 -11 10 -14 29 -4 19 -13 39 -21 46 -8 7
-15 17 -15 23 0 6 -15 27 -32 46 -18 18 -27 31 -20 27 23 -14 12 12 -28 63
-22 28 -40 57 -40 66 0 8 -6 14 -12 13 -7 -2 -12 3 -10 10 1 8 -2 11 -7 8 -14
-9 -51 33 -44 50 3 8 1 14 -5 14 -6 0 -12 -6 -15 -12 -3 -7 -12 4 -21 25 -9
21 -21 35 -27 31 -11 -6 -46 35 -42 48 2 4 -4 5 -12 2 -9 -4 -15 0 -15 10 0 9
5 16 11 16 8 0 8 5 -1 15 -7 8 -16 12 -21 9 -5 -3 -9 0 -9 5 0 6 -3 10 -8 9
-13 -5 -63 40 -52 47 16 10 12 22 -17 52 -18 19 -24 22 -20 10 4 -10 7 -37 7
-59 0 -31 4 -41 20 -45 12 -3 20 -14 20 -25 0 -14 5 -18 16 -14 9 3 12 2 9 -5
-4 -5 -1 -16 5 -24 8 -9 8 -15 2 -15 -5 0 -38 32 -73 71 -35 40 -70 77 -76 85
-29 29 -10 25 21 -5 36 -35 52 -29 36 14 -8 22 -13 24 -29 15 -13 -7 -22 -7
-26 0 -4 6 -10 8 -15 5 -4 -3 -32 23 -62 58 -61 70 -83 102 -50 73 30 -26 28
-10 -4 31 -14 18 -23 33 -20 33 6 0 79 -73 128 -129 20 -22 41 -41 47 -41 20
0 12 35 -14 62 -24 26 -33 44 -17 35 4 -3 8 6 9 20 0 14 5 28 11 32 6 3 6 15
1 29 -12 31 -21 28 -14 -5 l6 -28 -23 28 c-13 15 -29 27 -35 27 -13 0 -24 38
-13 45 4 3 13 -2 20 -10 15 -18 37 -21 23 -2 -18 24 -33 67 -23 67 6 0 10 -5
10 -11 0 -6 17 -32 37 -57 21 -26 39 -49 40 -51 2 -2 6 -1 9 2 4 4 1 15 -7 24
-13 16 -12 17 4 4 10 -8 16 -20 13 -28 -7 -17 3 -43 16 -43 6 0 7 8 4 17 -5
13 0 11 19 -7 14 -14 21 -26 16 -28 -19 -6 -12 -22 25 -60 26 -26 35 -31 30
-17 -4 14 1 12 19 -10 14 -16 25 -35 25 -42 0 -6 10 -15 21 -18 12 -4 17 -10
12 -14 -5 -3 -12 -14 -16 -23 -6 -18 -27 -25 -27 -9 0 4 -12 21 -26 36 -14 15
-23 33 -21 39 3 7 -4 18 -14 24 -11 7 -33 34 -49 60 -25 39 -30 43 -30 23 0
-16 -4 -21 -15 -17 -8 3 -15 3 -15 0 0 -11 45 -84 53 -84 10 0 9 7 -8 40 -13
26 -13 30 -1 30 8 0 28 -27 44 -59 16 -33 41 -72 56 -87 14 -16 26 -32 26 -36
0 -7 -47 40 -79 77 -7 9 -15 14 -18 11 -5 -4 49 -73 115 -146 l22 -25 0 25 c1
23 2 23 11 7 10 -16 13 -26 18 -57 1 -3 5 1 10 8 7 11 9 10 14 -3 4 -10 3 -14
-4 -9 -7 4 -9 -1 -7 -12 2 -11 10 -18 16 -16 7 1 17 -9 22 -24 6 -14 14 -23
19 -19 5 3 12 -4 16 -15 3 -11 12 -26 18 -32 7 -7 38 -48 71 -91 32 -42 60
-77 62 -77 1 0 2 18 1 39 0 22 -4 39 -7 39 -20 -2 -29 4 -24 16 3 8 0 25 -7
37 -13 25 -16 29 -59 80 -16 20 -30 44 -30 53 0 9 -5 16 -10 16 -21 0 -60 48
-53 66 5 13 2 15 -13 10 -17 -5 -20 -1 -19 21 1 28 -17 70 -55 128 -11 17 -23
36 -26 44 -4 7 -18 25 -31 39 -13 14 -31 42 -41 61 -9 20 -22 41 -29 46 -6 6
-15 24 -19 40 -8 32 -9 33 82 -78 8 -9 14 -21 14 -25 0 -4 19 -27 41 -52 22
-25 52 -66 67 -92 15 -27 30 -48 35 -48 4 0 7 -6 7 -13 0 -7 14 -28 31 -47 28
-31 31 -32 24 -10 -4 14 -28 63 -52 110 -25 47 -53 99 -62 117 -17 34 -35 45
-24 16 3 -10 -5 -2 -19 17 -25 36 -27 60 -3 40 9 -8 15 -8 20 0 8 13 -4 32
-16 25 -5 -4 -9 0 -9 8 0 8 -9 22 -19 31 -11 10 -21 28 -23 40 -2 11 -9 20
-16 19 -6 -2 -14 8 -18 22 -3 14 -14 31 -24 38 -9 6 -24 26 -33 44 -9 17 -30
46 -47 64 -16 18 -27 35 -24 38 3 3 19 -9 35 -27 35 -39 39 -40 34 -4 -2 15
-4 35 -4 45 -1 10 -5 16 -10 12 -6 -3 -21 14 -35 38 -30 50 -278 295 -321 317
-17 8 -67 38 -113 68 -46 29 -89 53 -95 55 -7 1 -14 4 -17 7 -3 3 -43 24 -90
46 -294 143 -340 162 -340 141 0 -8 -3 -7 -9 2 -5 8 -31 18 -58 22 -26 4 -66
12 -88 18 -58 15 -514 12 -600 -4z m-661 -310 c-7 -16 -51 -32 -61 -21 -4 3 1
6 10 6 10 0 17 5 17 11 0 5 5 7 10 4 6 -3 10 -1 10 4 0 6 4 11 10 11 5 0 7 -7
4 -15z m-97 -20 c-17 -15 -34 -22 -44 -18 -11 4 -14 3 -9 -5 5 -8 2 -10 -8 -6
-19 7 -19 4 -6 -30 6 -17 6 -26 0 -26 -6 0 -10 -10 -10 -22 -1 -21 -2 -22 -14
-6 -9 12 -16 14 -23 7 -13 -13 -29 44 -18 61 8 14 124 69 145 69 10 0 5 -8
-13 -24z m-147 -70 c0 -8 -7 -15 -15 -15 -7 0 -19 -8 -24 -17 -6 -10 -11 -14
-11 -9 0 9 39 56 47 56 2 0 3 -7 3 -15z m689 -219 c19 -11 31 -15 27 -8 -4 7
-1 12 8 12 8 0 19 -7 24 -16 6 -11 14 -14 23 -8 17 11 109 14 109 4 0 -4 28
-8 62 -9 34 -1 87 -9 118 -18 30 -10 58 -18 63 -19 4 -1 9 -3 12 -4 3 -1 10
-4 15 -5 6 -1 13 -4 18 -5 4 -1 10 -2 15 -1 4 0 7 -3 7 -9 0 -5 5 -10 12 -10
6 0 25 -10 42 -23 34 -26 66 -41 80 -38 14 3 44 -29 50 -55 4 -13 13 -24 21
-24 7 0 16 -8 20 -19 3 -10 21 -27 40 -37 19 -10 35 -22 35 -26 0 -5 18 -26
40 -48 22 -22 40 -47 40 -55 0 -8 6 -12 14 -9 8 3 16 -4 20 -18 5 -19 8 -20
16 -8 8 13 10 12 10 -5 0 -21 57 -85 75 -85 12 0 95 -106 95 -122 0 -5 4 -7 9
-4 4 3 14 -13 21 -34 7 -22 19 -45 27 -51 7 -6 13 -17 13 -23 1 -6 14 -27 30
-46 17 -19 30 -40 30 -47 0 -6 6 -16 14 -20 21 -12 116 -142 116 -159 0 -7 5
-14 12 -14 6 0 9 -2 7 -5 -3 -2 -61 -9 -130 -15 -134 -12 -290 -35 -354 -52
-22 -6 -62 -10 -89 -9 -26 1 -54 -3 -60 -8 -6 -5 -47 -14 -91 -21 -102 -14
-103 -14 -147 -34 -43 -18 -49 -26 -15 -19 22 4 22 4 2 -11 -11 -9 -25 -14
-31 -12 -6 2 -17 -7 -23 -20 -14 -31 -14 -47 -1 -39 6 4 8 11 5 16 -4 5 -1 9
4 9 29 0 5 -32 -49 -65 -63 -38 -81 -56 -30 -30 48 25 35 9 -16 -19 -28 -16
-41 -20 -33 -10 9 11 2 10 -28 -6 -23 -11 -44 -28 -47 -36 -3 -8 -13 -14 -23
-14 -15 0 -16 2 -3 10 22 14 12 12 -55 -10 -39 -14 -48 -19 -25 -15 24 3 30 2
20 -4 -17 -11 -158 -5 -245 11 -33 6 -76 20 -95 33 -29 18 -93 45 -107 45 -2
0 -1 -5 3 -12 5 -8 2 -9 -10 -5 -10 4 -23 7 -29 8 -7 1 -1 4 13 9 l25 7 -25
11 c-22 9 -22 11 -5 12 l20 1 -20 9 c-25 11 -65 12 -64 3 3 -19 -2 -27 -10
-14 -7 11 -15 10 -47 -5 -20 -10 -47 -17 -58 -16 -12 1 -39 -2 -61 -7 -22 -6
-68 -12 -101 -14 l-61 -5 -7 71 c-4 39 -10 75 -15 81 -4 6 -9 18 -10 26 0 8
-8 71 -16 140 -7 69 -12 134 -9 145 2 11 6 45 8 75 3 30 12 84 21 120 8 36 18
81 21 100 3 19 24 72 46 117 22 45 37 87 33 92 -3 6 -2 11 3 11 11 0 36 51 33
68 -1 6 3 12 9 12 6 0 14 8 17 18 7 19 42 52 55 52 4 0 8 7 8 16 0 11 -6 14
-22 9 -13 -5 4 17 42 54 35 33 72 63 82 67 10 3 18 9 18 14 0 4 9 10 21 13 13
4 18 10 13 18 -4 7 -3 10 3 6 6 -4 16 -1 22 7 7 8 23 17 37 20 14 4 35 15 45
25 11 10 39 21 61 24 22 3 44 11 48 18 5 6 14 10 22 7 8 -3 22 0 32 7 20 15
33 12 85 -19z m-921 -5 c-7 -11 -16 -18 -20 -15 -4 3 -2 11 5 19 18 21 29 18
15 -4z m2805 -61 c3 -11 1 -20 -4 -20 -5 0 -9 9 -9 20 0 11 2 20 4 20 2 0 6
-9 9 -20z m-2850 -48 c-21 -22 -26 -21 -17 2 3 9 12 16 20 16 11 0 10 -4 -3
-18z m1727 -54 c0 -19 -2 -20 -10 -8 -13 19 -13 30 0 30 6 0 10 -10 10 -22z
m1040 -133 c7 -14 17 -25 22 -25 4 0 8 -7 8 -15 0 -9 -6 -12 -15 -9 -8 4 -15
12 -15 19 0 7 -7 15 -15 19 -16 6 -21 36 -7 36 5 0 15 -11 22 -25z m-67 -128
c6 4 8 0 4 -10 -3 -9 -2 -19 3 -22 6 -4 10 -12 10 -18 0 -17 -69 65 -70 82 0
7 9 2 21 -13 11 -14 26 -23 32 -19z m-653 -91 c0 -12 -15 1 -45 40 -25 31 -45
62 -45 68 1 19 90 -88 90 -108z m776 66 c10 -6 26 -52 19 -52 -2 0 -13 14 -25
30 -20 29 -18 38 6 22z m-203 -160 c16 -17 23 -19 30 -10 7 10 10 10 14 1 2
-7 4 -15 3 -19 -1 -4 4 -10 11 -15 8 -4 11 -11 7 -14 -13 -13 -111 82 -102 97
6 9 9 8 12 -2 3 -8 14 -25 25 -38z m127 7 c0 6 5 11 10 11 6 0 8 -11 4 -25 -3
-14 -2 -25 3 -25 5 0 20 -14 32 -31 13 -18 18 -28 10 -24 -31 20 -62 52 -76
80 -15 28 -15 29 0 16 11 -9 17 -10 17 -2z m-582 -74 c-3 -3 -13 7 -23 22
l-17 28 23 -22 c12 -12 20 -25 17 -28z m212 36 c0 -6 -4 -13 -10 -16 -5 -3
-10 1 -10 9 0 9 5 16 10 16 6 0 10 -4 10 -9z m2081 -22 c-9 -22 -10 -22 -10
-3 -1 11 2 24 6 27 12 12 14 0 4 -24z m-2011 -32 c0 -4 -9 -3 -20 3 -11 6 -20
15 -20 20 0 6 9 5 20 -2 11 -7 20 -16 20 -21z m686 -8 c1 -17 -1 -28 -3 -25
-3 3 -7 20 -9 37 -2 18 -1 29 3 25 4 -4 8 -21 9 -37z m-732 -11 c7 -5 8 -8 1
-8 -16 0 -35 22 -35 40 1 11 4 10 12 -5 6 -11 16 -23 22 -27z m2067 15 c-12
-20 -14 -14 -5 12 4 9 9 14 11 11 3 -2 0 -13 -6 -23z m-4887 -38 c34 -19 77
-48 96 -65 18 -16 37 -30 42 -30 22 0 48 -42 48 -80 0 -42 -7 -48 -30 -27 -8
6 -7 3 2 -8 15 -19 22 -52 19 -101 -1 -12 -15 -36 -31 -54 -17 -18 -23 -30
-15 -26 10 3 15 -1 15 -13 0 -10 14 -48 30 -84 47 -104 47 -104 -76 -166 -188
-94 -216 -82 -239 96 -6 49 -5 52 22 67 l28 16 -27 -6 c-32 -7 -32 -8 -53 151
-27 200 -21 325 15 325 6 0 19 9 30 20 28 28 53 25 124 -15z m2876 9 c0 -2 -9
0 -20 6 -11 6 -20 13 -20 16 0 2 9 0 20 -6 11 -6 20 -13 20 -16z m314 3 c14
-13 23 -27 19 -31 -4 -4 0 -4 9 -1 9 4 18 0 21 -9 8 -19 -13 -21 -34 -3 -31
26 -62 67 -51 67 6 0 22 -11 36 -23z m653 -29 c-2 -13 -4 -5 -4 17 -1 22 1 32
4 23 2 -10 2 -28 0 -40z m-562 33 c3 -5 1 -12 -5 -16 -5 -3 -10 1 -10 9 0 18
6 21 15 7z m1629 -38 c-2 -61 -5 -67 -13 -23 -6 29 2 70 12 70 1 0 2 -21 1
-47z m-4617 -5 c-3 -7 -5 -2 -5 12 0 14 2 19 5 13 2 -7 2 -19 0 -25z m2567 13
c3 -5 15 -7 26 -4 11 3 20 0 20 -6 0 -6 -6 -11 -12 -11 -7 -1 -4 -6 8 -13 37
-21 86 -67 88 -82 1 -8 13 -27 27 -41 30 -33 6 -21 -40 20 -95 86 -150 146
-133 146 6 0 13 -4 16 -9z m454 -12 c19 -30 8 -34 -12 -4 -9 14 -13 25 -9 25
5 0 14 -9 21 -21z m-318 -41 c0 -5 -9 -4 -20 2 -11 6 -18 15 -14 21 6 11 34
-7 34 -23z m354 -4 c3 -8 2 -12 -4 -9 -6 3 -10 10 -10 16 0 14 7 11 14 -7z
m-31 -37 c4 3 7 -2 7 -11 0 -15 -6 -13 -34 11 -19 15 -35 32 -35 37 -1 6 12
-2 27 -17 16 -15 31 -24 35 -20z m-4125 8 c-3 -3 -9 2 -12 12 -6 14 -5 15 5 6
7 -7 10 -15 7 -18z m4057 -79 c28 -21 51 -39 53 -40 1 -2 -13 -3 -30 -3 -18 0
-27 2 -20 5 7 2 -7 21 -35 46 -95 85 -109 99 -63 64 25 -19 68 -52 95 -72z
m-120 64 c10 -11 16 -20 13 -20 -3 0 -13 9 -23 20 -10 11 -16 20 -13 20 3 0
13 -9 23 -20z m1792 -37 c-16 -16 -17 -16 -17 0 0 10 5 15 10 12 6 -3 10 -1
10 6 0 7 3 9 7 5 4 -3 -1 -14 -10 -23z m-1562 -3 c10 -11 16 -20 13 -20 -3 0
-13 9 -23 20 -10 11 -16 20 -13 20 3 0 13 -9 23 -20z m-395 -57 c0 -8 -36 16
-55 38 -16 19 -13 18 18 -5 20 -16 37 -30 37 -33z m1962 2 c-2 -14 -8 -22 -13
-19 -13 8 -11 32 4 37 6 3 13 6 13 6 1 1 -1 -10 -4 -24z m-1592 -30 c11 -13
10 -14 -4 -9 -9 3 -16 10 -16 15 0 13 6 11 20 -6z m1604 -20 c-4 -17 -10 -23
-16 -17 -6 6 -5 17 3 30 17 27 22 22 13 -13z m-1564 1 c0 -3 -4 -8 -10 -11 -5
-3 -10 -1 -10 4 0 6 5 11 10 11 6 0 10 -2 10 -4z m20 -26 c0 -5 -2 -10 -4 -10
-3 0 -8 5 -11 10 -3 6 -1 10 4 10 6 0 11 -4 11 -10z m-380 -20 c0 -5 -2 -10
-4 -10 -3 0 -8 5 -11 10 -3 6 -1 10 4 10 6 0 11 -4 11 -10z m1912 -42 c-9 -9
-12 -4 -11 23 0 32 1 33 11 11 8 -17 8 -26 0 -34z m-1772 2 c18 -16 29 -30 22
-30 -6 0 -14 5 -17 10 -3 6 -11 10 -17 10 -7 0 -6 -5 2 -15 6 -8 10 -20 7 -27
-4 -9 -6 -8 -6 3 -1 9 -8 22 -17 29 -8 8 -20 22 -25 32 -16 29 12 22 51 -12z
m55 -56 c0 -5 4 -14 8 -21 5 -7 1 -9 -12 -6 -12 3 -19 13 -18 24 1 19 22 22
22 3z m-666 -19 c-3 -2 -39 -7 -80 -10 -171 -13 -367 -64 -544 -141 -121 -53
-98 -32 40 36 101 50 249 94 369 110 69 8 222 13 215 5z m327 -46 c56 -28 72
-43 102 -92 32 -52 36 -67 40 -143 3 -46 0 -84 -4 -84 -5 0 -15 26 -23 58 -21
91 -50 148 -98 193 -53 49 -115 78 -183 86 -82 10 -68 23 20 19 68 -2 90 -8
146 -37z m183 13 c32 -23 29 -35 -12 -47 -60 -17 -52 -24 10 -9 75 19 139 28
155 22 7 -3 17 -6 22 -6 12 -1 36 -59 36 -88 0 -13 -6 -24 -13 -24 -29 0 -82
-35 -83 -55 0 -11 -3 -35 -7 -53 -4 -18 -3 -31 1 -28 10 6 82 -41 82 -53 0
-13 36 -51 43 -45 3 3 8 -5 12 -18 4 -13 12 -26 17 -29 5 -3 11 -21 13 -40 2
-19 8 -47 14 -62 6 -16 14 -90 17 -165 6 -124 9 -139 28 -154 l21 -17 -25 6
c-25 5 -25 5 -5 -11 11 -10 15 -15 8 -12 -7 4 -14 -6 -18 -24 -8 -34 1 -54 21
-46 17 6 17 -4 4 -73 -5 -30 -18 -60 -29 -69 -15 -13 -21 -35 -26 -95 -3 -44
-10 -89 -14 -100 -5 -12 -11 -44 -15 -72 -15 -103 -58 -253 -96 -331 -38 -77
-60 -109 -228 -329 -40 -52 -70 -100 -67 -105 4 -6 -3 -14 -15 -18 -21 -8 -21
-8 3 -21 17 -9 23 -19 20 -32 -3 -11 1 -26 8 -35 10 -13 10 -17 -1 -24 -22
-14 -38 11 -29 45 11 37 11 37 -1 30 -5 -3 -10 -14 -10 -25 0 -10 -7 -21 -16
-24 -14 -5 -12 -9 9 -26 25 -20 43 -70 24 -70 -5 0 -5 -6 2 -13 6 -8 8 -16 6
-19 -3 -3 -1 -17 6 -31 8 -19 8 -29 -1 -43 -11 -17 -11 -18 -6 -1 4 11 2 16
-5 12 -6 -4 -8 -13 -5 -20 2 -7 -15 -68 -40 -135 -24 -67 -44 -130 -43 -139 0
-9 11 13 23 49 42 115 75 195 75 181 1 -11 5 -10 16 5 8 10 15 23 15 28 0 6
-7 1 -15 -10 -8 -10 -15 -16 -15 -12 0 12 43 88 48 83 3 -2 0 -10 -5 -17 -5
-7 -10 -30 -10 -51 -1 -21 -6 -43 -11 -50 -6 -7 -13 -24 -16 -37 -2 -14 -13
-53 -24 -88 -11 -34 -16 -64 -12 -67 4 -2 15 19 24 48 9 28 21 59 27 67 9 13
10 12 5 -3 -31 -96 -45 -189 -30 -194 6 -2 9 7 6 25 -2 20 1 31 11 35 19 7 43
-18 27 -28 -5 -3 -10 2 -10 12 -1 17 -1 17 -11 1 -7 -12 -6 -24 1 -37 14 -28
13 -57 -5 -74 -9 -10 -11 -17 -4 -19 7 -2 7 -12 0 -31 -9 -24 -13 -26 -32 -17
-20 11 -20 11 -4 -14 19 -28 18 -31 -28 -136 -21 -48 -74 -130 -91 -142 -7 -5
-6 -11 3 -20 10 -10 12 -10 7 0 -4 6 -4 12 1 12 4 0 19 16 32 35 13 20 26 33
28 31 8 -8 -40 -128 -53 -133 -8 -3 -16 -20 -20 -39 -6 -32 -19 -40 -55 -36
-4 1 -58 4 -120 7 -63 3 -154 12 -204 20 -49 7 -108 16 -130 20 -118 16 -257
54 -272 73 -19 26 -17 88 5 98 9 4 23 6 30 5 6 -1 12 7 12 18 0 11 5 23 11 27
6 3 9 14 6 24 -3 14 0 17 12 13 14 -4 14 -3 -1 10 -24 19 -23 30 2 17 12 -7
20 -7 20 -1 0 5 9 9 20 8 10 -1 17 -3 15 -6 -6 -5 105 -51 123 -51 7 0 10 5 7
10 -3 5 -14 10 -23 10 -9 0 -33 13 -52 30 l-35 30 24 16 c23 17 23 18 5 32
-18 14 -18 14 1 9 11 -2 28 -8 38 -12 12 -5 17 -2 17 11 0 9 3 14 6 11 11 -11
66 34 60 49 -3 8 0 13 6 11 7 -1 12 3 13 10 0 6 3 15 8 19 4 4 7 12 7 18 0 6
-5 4 -10 -4 -6 -9 -10 -10 -10 -3 0 21 12 43 21 37 5 -3 9 0 9 5 0 6 -5 11
-11 11 -7 0 -9 10 -7 25 3 13 1 22 -3 19 -5 -3 -9 -1 -9 5 0 5 5 13 10 16 6 3
10 11 10 16 0 6 -4 7 -10 4 -11 -7 -3 23 11 41 13 16 -34 52 -62 48 -13 -2
-72 -12 -131 -22 -59 -10 -115 -15 -127 -10 -11 4 -23 3 -26 -2 -4 -6 -14 -6
-27 1 -11 6 -18 7 -15 2 7 -11 -73 -11 -90 0 -7 5 -13 4 -13 -1 0 -13 -74 -4
-130 15 -71 25 -140 77 -200 149 -30 37 -87 103 -127 145 -119 130 -178 210
-242 328 -33 62 -63 123 -67 135 -4 11 -60 126 -126 254 -168 329 -197 405
-214 567 l-6 61 103 -4 c72 -3 125 1 173 12 38 9 71 14 74 11 3 -3 -1 -5 -8
-5 -7 0 -11 -3 -7 -6 5 -6 88 10 127 24 8 3 19 4 24 3 4 -1 14 3 20 8 7 6 22
12 34 14 35 5 111 64 116 89 3 13 10 53 16 91 14 90 55 185 97 226 31 30 40
33 76 28 35 -5 52 -18 132 -100 129 -132 209 -166 426 -183 152 -12 382 28
523 90 32 14 62 24 66 21 12 -7 191 87 252 133 82 63 157 165 163 221 1 14 5
47 10 74 8 52 5 54 -60 37 l-30 -8 28 -1 c32 -1 32 -3 11 -69 -14 -42 -21 -51
-43 -54 -28 -4 -28 -4 -28 61 0 38 -8 86 -17 111 -10 25 -21 59 -26 75 -4 17
-8 26 -9 20 -1 -5 -21 11 -46 35 -32 32 -41 46 -32 52 19 14 129 -1 156 -20z
m207 -9 c-7 -7 -26 7 -26 19 0 6 6 6 15 -2 9 -7 13 -15 11 -17z m-776 -15 c0
-24 -17 -39 -46 -42 -16 -2 -32 -4 -35 -5 -4 0 -10 -11 -14 -23 -6 -18 -8 -19
-12 -7 -4 18 -65 29 -168 29 -40 0 -55 4 -45 10 24 14 176 42 202 37 15 -3 10
-5 -14 -6 -51 -1 -49 -21 2 -21 33 0 40 3 40 20 0 17 7 20 45 20 29 0 45 -4
45 -12z m210 2 c0 -5 -4 -10 -10 -10 -5 0 -10 -6 -10 -14 0 -8 -5 -27 -12 -43
-6 -15 -10 -34 -9 -40 1 -7 -5 -13 -13 -13 -16 0 -36 56 -36 103 0 25 3 27 45
27 25 0 45 -4 45 -10z m1110 -25 c14 -19 14 -19 -2 -6 -10 7 -18 18 -18 24 0
6 1 8 3 6 1 -2 9 -13 17 -24z m-986 -25 c23 -23 15 -63 -17 -85 -17 -11 -35
-13 -67 -7 l-44 7 46 19 c34 14 45 23 40 35 -5 14 -3 14 11 2 30 -24 20 11
-10 37 l-28 23 25 -7 c14 -3 33 -14 44 -24z m-237 -42 c-3 -7 -5 -2 -5 12 0
14 2 19 5 13 2 -7 2 -19 0 -25z m173 2 c0 -5 -7 -10 -16 -10 -8 0 -12 5 -9 10
3 6 10 10 16 10 5 0 9 -4 9 -10z m149 -49 c26 -52 34 -91 19 -91 -7 0 -67 16
-133 34 -115 33 -118 34 -69 35 69 1 122 24 130 56 5 21 9 23 21 13 8 -6 22
-28 32 -47z m-1785 -106 c177 -30 200 -35 194 -40 -2 -2 -78 7 -168 21 -183
28 -306 33 -455 20 -111 -9 -126 1 -18 13 141 17 289 12 447 -14z m-1154 -66
c0 -16 -36 -10 -52 9 -9 9 -19 28 -23 41 -7 24 -6 23 34 -8 22 -18 41 -37 41
-42z m755 0 c-7 -20 -8 -21 -17 -4 -8 14 -12 15 -19 4 -4 -7 -11 -10 -15 -6
-4 3 4 15 17 26 28 23 44 13 34 -20z m135 11 c20 -6 15 -8 -25 -9 -36 -1 -46
-4 -35 -11 12 -8 11 -10 -7 -10 -13 0 -23 -6 -23 -14 0 -24 -18 -28 -29 -7
-13 24 -5 48 17 54 27 7 75 6 102 -3z m-477 -22 c5 -17 -42 -80 -54 -72 -14 8
-39 -60 -39 -103 0 -21 5 -56 10 -78 8 -33 6 -42 -7 -52 -18 -14 -127 -16
-158 -3 -26 11 -96 24 -112 21 -18 -3 -16 16 4 50 19 32 63 46 113 36 17 -4
41 0 57 8 15 8 38 15 49 15 17 0 24 9 33 47 24 94 88 176 104 131z m58 -9
c-13 -11 -27 -17 -30 -13 -7 7 28 34 43 34 6 -1 0 -10 -13 -21z m3348 -5 c14
-12 -19 -1 -35 12 -18 14 -18 14 6 3 14 -6 27 -13 29 -15z m-3296 -36 c-1 -18
-2 -35 -2 -37 -1 -2 -7 1 -14 7 -10 8 -13 2 -13 -29 -1 -22 -7 -46 -13 -52 -9
-9 -10 3 -5 48 4 42 12 65 26 78 11 9 21 17 22 17 0 0 0 -15 -1 -32z m3387 -8
c0 -5 -2 -10 -4 -10 -3 0 -8 5 -11 10 -3 6 -1 10 4 10 6 0 11 -4 11 -10z
m-951 -42 c-26 -48 -56 -82 -114 -125 -57 -43 -173 -108 -180 -101 -2 2 24 18
58 36 83 43 172 114 210 168 34 48 45 57 26 22z m2031 12 c0 -5 -2 -10 -4 -10
-3 0 -8 5 -11 10 -3 6 -1 10 4 10 6 0 11 -4 11 -10z m-38 -52 c-6 -6 -7 0 -4
19 5 21 7 23 10 9 2 -10 0 -22 -6 -28z m-3101 -119 c12 -18 18 -29 11 -25 -18
11 -60 87 -67 121 -4 19 1 14 13 -17 11 -25 30 -61 43 -79z m3104 61 c-9 -29
-26 -12 -18 18 4 15 9 20 15 14 6 -6 7 -20 3 -32z m-740 -81 c-4 -5 -11 -9
-16 -9 -6 0 -8 4 -5 9 3 4 -1 17 -9 27 -24 32 -16 41 10 11 14 -16 23 -33 20
-38z m-3610 31 c3 -5 1 -10 -4 -10 -6 0 -11 5 -11 10 0 6 2 10 4 10 3 0 8 -4
11 -10z m4344 -2 c0 -7 -4 -22 -9 -33 -6 -16 -8 -14 -7 13 0 17 4 32 9 32 4 0
8 -6 7 -12z m-769 -19 c0 -6 -4 -7 -10 -4 -5 3 -10 11 -10 16 0 6 5 7 10 4 6
-3 10 -11 10 -16z m-3764 -127 c-6 -6 -36 78 -35 101 0 12 9 -5 19 -38 11 -32
18 -61 16 -63z m3839 66 c4 4 5 0 3 -8 -3 -8 6 -31 20 -50 29 -38 164 -173
233 -232 72 -61 167 -148 248 -228 42 -41 80 -74 84 -72 5 1 6 -2 3 -6 -3 -5
5 -30 17 -55 20 -39 26 -44 43 -35 18 9 18 9 1 -6 -15 -11 -16 -18 -8 -35 16
-30 31 -71 26 -71 -3 0 -19 28 -36 63 -62 126 -76 144 -194 260 -66 65 -132
128 -147 139 -47 33 -34 -4 22 -63 27 -28 47 -55 45 -59 -6 -9 43 -80 55 -80
16 0 12 7 -22 46 -28 31 -29 35 -10 25 13 -7 37 -32 55 -57 17 -24 34 -44 38
-44 5 0 17 -20 28 -45 11 -25 25 -45 30 -45 6 0 19 -18 30 -41 16 -33 17 -40
5 -35 -9 3 -12 2 -9 -5 4 -6 9 -25 12 -42 2 -18 11 -44 18 -59 7 -16 10 -28 5
-28 -4 0 -13 15 -19 33 -9 25 -14 29 -21 17 -5 -8 -7 -26 -6 -40 2 -14 1 -18
-1 -8 -2 9 -11 19 -20 22 -12 5 -14 1 -10 -13 3 -11 -1 -28 -8 -37 -11 -16
-14 -13 -21 27 -4 24 -7 50 -5 57 1 6 -3 20 -8 30 -10 16 -10 16 -11 0 0 -24
-12 -23 -28 3 -8 12 -9 18 -3 14 14 -8 14 -3 -3 30 -8 15 -12 33 -10 40 3 7 0
16 -6 20 -6 4 -8 15 -5 24 3 11 -2 24 -11 32 -16 13 -16 12 -6 -7 8 -16 8 -24
0 -32 -9 -9 -9 -12 1 -12 8 0 11 -7 8 -20 -6 -22 24 -112 45 -139 21 -26 38
-60 38 -73 -1 -8 -7 -5 -15 6 -25 33 -17 2 15 -55 16 -30 30 -58 30 -64 0 -5
-12 10 -26 35 -33 57 -39 62 -30 25 8 -33 8 -33 -17 7 -14 23 -15 26 -2 22 17
-7 19 4 5 26 -9 13 -10 13 -10 0 0 -8 -9 0 -20 18 -11 18 -20 38 -20 45 1 6 8
-1 16 -16 22 -41 28 -27 7 17 l-17 37 -14 -26 c-7 -14 -10 -35 -6 -47 4 -14 3
-18 -6 -13 -6 4 -10 18 -7 31 2 13 1 24 -4 24 -4 0 -11 10 -15 23 -15 44 -13
49 12 26 13 -12 24 -19 24 -16 0 11 -44 52 -52 49 -5 -1 -8 2 -8 7 0 11 -90
131 -132 176 -15 17 -28 38 -28 47 0 9 -5 20 -10 23 -6 4 -23 32 -39 63 -16
31 -45 74 -64 95 -48 51 -81 115 -68 131 7 8 6 21 -4 39 -12 24 -12 27 1 27
12 0 11 6 -5 29 -24 33 -27 46 -8 35 7 -5 6 0 -3 11 -11 13 -12 19 -3 22 9 3
9 12 2 29 -14 39 -10 51 10 27 10 -12 22 -19 26 -15z m-4030 -14 c44 -8 88
-16 97 -17 10 -1 20 -7 23 -15 5 -14 -18 -56 -27 -47 -3 3 -3 -18 0 -46 l5
-51 -49 7 c-27 3 -64 8 -83 11 -21 3 -40 -1 -50 -10 -9 -8 -31 -16 -50 -18
-33 -3 -35 -1 -50 45 -12 39 -13 52 -2 68 9 15 9 24 1 34 -8 10 -8 19 0 34 14
26 70 28 185 5z m2360 -14 c-11 -5 -27 -9 -35 -9 -9 0 -8 4 5 9 11 5 27 9 35
9 9 0 8 -4 -5 -9z m-58 -16 c-3 -3 -12 -4 -19 -1 -8 3 -5 6 6 6 11 1 17 -2 13
-5z m-44 -11 c-7 -2 -19 -2 -25 0 -7 3 -2 5 12 5 14 0 19 -2 13 -5z m-50 -10
c-7 -2 -21 -2 -30 0 -10 3 -4 5 12 5 17 0 24 -2 18 -5z m1681 -9 c3 -8 2 -12
-4 -9 -6 3 -10 10 -10 16 0 14 7 11 14 -7z m-1906 -1 c-10 -2 -28 -2 -40 0
-13 2 -5 4 17 4 22 1 32 -1 23 -4z m145 0 c-13 -2 -33 -2 -45 0 -13 2 -3 4 22
4 25 0 35 -2 23 -4z m-1566 -35 c-3 -8 -6 -5 -6 6 -1 11 2 17 5 13 3 -3 4 -12
1 -19z m3351 -13 c-3 -3 -9 2 -12 12 -6 14 -5 15 5 6 7 -7 10 -15 7 -18z
m-3652 -37 l29 -33 -32 29 c-18 17 -33 31 -33 33 0 8 8 1 36 -29z m3481 10
c-3 -8 -6 -5 -6 6 -1 11 2 17 5 13 3 -3 4 -12 1 -19z m208 -36 c-9 -9 -25 11
-25 31 1 21 1 21 15 -3 7 -14 12 -27 10 -28z m-720 -46 c-4 -20 -11 -36 -16
-36 -12 0 -11 10 2 49 14 41 22 34 14 -13z m92 9 c-5 -13 -47 -19 -47 -7 0 6
3 17 6 26 5 12 9 13 25 3 10 -6 18 -16 16 -22z m1366 10 c-3 -9 -8 -14 -10
-11 -3 3 -2 9 2 15 9 16 15 13 8 -4z m-700 -31 c9 -20 12 -32 5 -28 -8 5 -9 2
-4 -12 4 -10 18 -55 31 -99 13 -44 28 -93 34 -108 6 -16 11 -42 11 -58 0 -16
7 -45 15 -65 8 -19 10 -32 5 -29 -12 7 -13 -8 -2 -19 4 -4 8 -12 8 -17 1 -5 3
-12 4 -16 5 -17 7 -29 8 -60 1 -17 9 -38 17 -47 8 -8 15 -21 15 -28 0 -10 -3
-9 -10 2 -15 24 -11 -48 6 -95 l14 -40 -4 45 c-4 37 -3 40 4 15 26 -91 36
-145 29 -145 -4 0 -11 16 -15 35 -3 19 -10 38 -16 41 -5 3 -6 -6 -3 -23 5 -21
4 -24 -4 -13 -6 8 -16 39 -22 68 -7 28 -15 52 -20 52 -4 0 -3 -15 1 -32 19
-81 41 -158 55 -191 8 -20 15 -40 15 -44 -1 -11 -55 107 -87 187 -14 36 -33
82 -44 102 -12 25 -16 48 -13 68 4 16 3 30 -2 30 -10 0 -11 -12 -15 -119 -2
-95 -17 -72 -29 47 -6 48 -10 93 -10 100 0 7 -5 10 -12 6 -7 -5 -9 -1 -6 13 3
11 1 28 -5 39 -10 18 -10 18 -17 -1 -4 -11 -13 22 -25 86 -10 57 -26 130 -37
161 -13 40 -16 70 -12 99 4 23 10 36 14 29 10 -17 22 4 14 24 -11 28 22 8 36
-22 34 -74 40 -92 50 -162 15 -97 21 -113 30 -75 l8 30 1 -35 c1 -19 8 -53 16
-75 17 -47 18 -56 5 -35 -8 13 -10 12 -10 -2 0 -10 7 -18 15 -18 8 0 15 -7 15
-15 0 -8 4 -15 9 -15 5 0 11 -18 15 -40 3 -22 10 -40 14 -40 8 0 5 65 -5 90
-10 24 -12 33 -23 80 -11 43 -13 57 -23 125 -2 17 -16 68 -30 115 -48 156 -54
214 -14 134z m-3393 -15 c0 -6 -4 -7 -10 -4 -5 3 -10 11 -10 16 0 6 5 7 10 4
6 -3 10 -11 10 -16z m3359 -39 c1 -13 0 -13 -9 0 -5 8 -9 24 -9 35 l0 20 9
-20 c5 -11 9 -27 9 -35z m-113 -28 c-8 -8 -12 -1 -20 33 l-6 30 16 -28 c8 -16
13 -31 10 -35z m-119 6 c-3 -8 -6 -5 -6 6 -1 11 2 17 5 13 3 -3 4 -12 1 -19z
m-120 -40 c-3 -8 -6 -5 -6 6 -1 11 2 17 5 13 3 -3 4 -12 1 -19z m-13 -14 c3
-8 2 -12 -4 -9 -6 3 -10 10 -10 16 0 14 7 11 14 -7z m501 -35 c9 -16 12 -29 7
-29 -5 0 -16 16 -25 36 -20 42 -4 36 18 -7z m45 -31 c0 -5 -4 -8 -10 -8 -5 0
-10 10 -10 23 0 18 2 19 10 7 5 -8 10 -18 10 -22z m517 10 c-3 -8 -6 -5 -6 6
-1 11 2 17 5 13 3 -3 4 -12 1 -19z m80 -40 c-3 -7 -5 -2 -5 12 0 14 2 19 5 13
2 -7 2 -19 0 -25z m-1060 0 c-3 -8 -6 -5 -6 6 -1 11 2 17 5 13 3 -3 4 -12 1
-19z m92 -117 c2 -77 -10 -37 -14 50 -3 68 -2 75 5 39 5 -25 9 -65 9 -89z
m238 87 c-3 -7 -5 -2 -5 12 0 14 2 19 5 13 2 -7 2 -19 0 -25z m163 -19 c16
-23 27 -45 24 -50 -6 -11 42 -100 64 -116 16 -13 26 -56 10 -47 -4 3 -17 22
-29 42 -11 20 -31 55 -44 77 -13 21 -21 43 -19 47 3 4 0 8 -6 8 -7 0 -10 5 -8
12 2 6 -4 20 -14 30 -17 17 -24 38 -13 38 3 0 18 -19 35 -41z m557 -11 c-3 -8
-6 -5 -6 6 -1 11 2 17 5 13 3 -3 4 -12 1 -19z m-597 -36 c0 -8 -1 -13 -3 -11
-1 2 -9 12 -16 22 -12 15 -12 17 3 11 9 -3 16 -13 16 -22z m-533 -4 c-3 -8 -6
-5 -6 6 -1 11 2 17 5 13 3 -3 4 -12 1 -19z m271 -9 c-3 -8 -7 -3 -11 10 -4 17
-3 21 5 13 5 -5 8 -16 6 -23z m782 0 c0 -6 -4 -7 -10 -4 -5 3 -10 11 -10 16 0
6 5 7 10 4 6 -3 10 -11 10 -16z m-512 -64 c-3 -3 -9 2 -12 12 -6 14 -5 15 5 6
7 -7 10 -15 7 -18z m-370 -26 c-1 -17 -4 -25 -8 -18 -5 6 -6 19 -5 28 5 21 4
21 9 21 3 0 4 -14 4 -31z m-206 -21 c-7 -7 -12 -8 -12 -2 0 6 3 14 7 17 3 4 9
5 12 2 2 -3 -1 -11 -7 -17z m578 -55 c0 -70 -5 -66 -13 10 -3 34 -2 55 4 52 5
-4 9 -31 9 -62z m191 22 c7 -13 3 -12 -10 5 -11 14 -21 30 -21 35 0 11 14 -7
31 -40z m-139 -88 c-12 -27 -25 74 -14 108 5 13 9 -1 12 -40 3 -33 4 -64 2
-68z m-671 46 c-12 -20 -14 -14 -5 12 4 9 9 14 11 11 3 -2 0 -13 -6 -23z m26
-10 c-3 -10 -5 -4 -5 12 0 17 2 24 5 18 2 -7 2 -21 0 -30z m372 -77 c-5 -6 -8
18 -8 55 l2 64 7 -55 c4 -30 3 -59 -1 -64z m294 -8 c6 -43 3 -44 -18 -12 -9
15 -11 23 -4 19 9 -6 11 -3 6 8 -3 10 -3 17 2 17 5 0 11 -15 14 -32z m-293
-82 c-7 -7 -10 1 -9 25 0 32 1 33 10 10 6 -16 6 -28 -1 -35z m-446 0 c-3 -15
-8 -25 -11 -23 -2 3 -1 17 3 31 3 15 8 25 11 23 2 -3 1 -17 -3 -31z m759 -21
c9 -18 9 -19 -6 -6 -10 7 -17 23 -16 35 0 14 2 16 6 6 3 -8 10 -24 16 -35z
m-251 -5 c-2 -16 -6 -30 -8 -30 -2 0 -4 14 -4 30 0 17 4 30 8 30 5 0 7 -13 4
-30z m45 -32 c-3 -8 -6 -5 -6 6 -1 11 2 17 5 13 3 -3 4 -12 1 -19z m0 -65 c-3
-10 -5 -2 -5 17 0 19 2 27 5 18 2 -10 2 -26 0 -35z m573 -45 c21 -43 28 -77 9
-45 -16 28 -40 87 -34 87 2 0 14 -19 25 -42z m-80 -49 c0 -6 -4 -7 -10 -4 -5
3 -10 11 -10 16 0 6 5 7 10 4 6 -3 10 -11 10 -16z m-567 -34 c-3 -9 -8 -14
-10 -11 -3 3 -2 9 2 15 9 16 15 13 8 -4z m224 -7 c-3 -8 -6 -5 -6 6 -1 11 2
17 5 13 3 -3 4 -12 1 -19z m27 -88 c4 -24 3 -29 -3 -15 -4 11 -11 36 -15 55
-4 24 -3 29 3 15 4 -11 11 -36 15 -55z m-3873 -32 c0 -7 3 -25 5 -39 3 -16 -9
-59 -26 -103 -17 -43 -30 -82 -28 -88 2 -6 14 18 27 53 13 35 27 68 32 74 10
11 -6 -47 -61 -213 -25 -79 -42 -153 -50 -227 -7 -60 -19 -124 -26 -142 -16
-36 -18 -67 -4 -58 5 3 7 12 4 19 -3 7 2 16 12 20 13 5 15 2 10 -21 -5 -22 -4
-24 4 -11 5 9 12 31 14 50 3 30 6 33 35 32 17 -1 31 2 31 7 0 5 8 9 18 9 10 0
23 5 30 12 9 9 12 6 12 -14 0 -30 18 -47 30 -28 4 7 15 10 23 7 11 -4 14 -1
10 9 -4 10 0 12 11 8 9 -3 16 -10 16 -15 0 -5 10 -5 23 0 18 7 26 5 34 -8 6
-10 39 -28 72 -41 34 -12 66 -31 72 -41 5 -11 18 -19 27 -19 21 0 63 -42 85
-85 14 -25 16 -27 18 -10 1 11 1 25 0 32 -2 16 37 36 60 30 10 -3 17 -1 14 3
-20 33 68 9 118 -32 17 -15 61 -48 97 -74 l64 -47 -54 -46 c-30 -25 -99 -88
-152 -140 -54 -52 -107 -95 -118 -96 -11 -1 -31 -12 -45 -25 -14 -13 -25 -20
-25 -16 0 5 -7 3 -15 -4 -8 -7 -15 -9 -15 -4 0 4 -13 -5 -29 -20 -16 -15 -36
-28 -45 -30 -8 -1 -26 -11 -38 -22 -34 -29 -95 -68 -163 -103 -62 -32 -246
-101 -268 -101 -17 0 -90 -39 -102 -54 -15 -19 -109 -76 -198 -122 -44 -21
-90 -49 -103 -61 -13 -12 -24 -19 -24 -15 0 4 -10 -4 -21 -18 -11 -14 -17 -18
-13 -10 7 13 6 13 -12 0 -10 -8 -21 -17 -24 -20 -3 -3 -19 -13 -36 -22 -29
-16 -35 -17 -85 -2 -30 9 -69 29 -87 45 -18 16 -43 29 -56 29 -17 0 -26 7 -30
25 -9 37 -64 61 -106 47 -28 -10 -31 -10 -26 4 26 69 14 95 -43 90 -20 -2 -61
-16 -90 -31 -29 -14 -55 -24 -57 -22 -3 2 19 39 47 81 35 52 49 80 42 87 -16
16 -59 0 -72 -27 -6 -13 -19 -24 -28 -24 -17 1 -17 1 0 11 33 20 16 26 -35 13
-34 -9 -56 -10 -62 -4 -13 13 9 59 31 66 72 22 107 60 83 89 -19 22 -43 18
-88 -15 -47 -34 -85 -40 -80 -12 2 12 16 19 45 23 51 6 110 50 97 71 -14 22
13 51 74 83 102 52 237 190 349 355 51 74 175 239 277 366 168 210 188 239
222 324 59 148 119 199 239 200 33 1 69 5 80 10 29 13 45 12 46 -2z m3892 -53
c5 -28 4 -34 -3 -20 -8 19 -14 73 -6 64 2 -2 6 -22 9 -44z m-3878 -166 c-5
-16 -4 -19 5 -14 9 6 11 -3 6 -36 -10 -75 -12 -81 -30 -91 -15 -8 -16 -12 -5
-19 9 -6 10 -9 2 -9 -6 0 -15 5 -19 12 -5 8 -10 6 -15 -8 -7 -18 -8 -18 -8 1
-1 22 33 135 49 165 14 26 23 25 15 -1z m2418 -176 c-3 -7 -6 -13 -8 -13 -2 0
-5 6 -8 13 -3 8 1 14 8 14 7 0 11 -6 8 -14z m-2517 -200 c-11 -11 -17 4 -9 23
7 18 8 18 11 1 2 -10 1 -21 -2 -24z m2525 -116 c-13 -13 -15 1 -4 30 7 17 8
17 11 -1 2 -10 -1 -23 -7 -29z m-19 -269 c-8 -8 -9 -4 -5 13 4 13 8 18 11 10
2 -7 -1 -18 -6 -23z m-17 -48 c-4 -12 -9 -19 -12 -17 -3 3 -2 15 2 27 4 12 9
19 12 17 3 -3 2 -15 -2 -27z m-41 -84 c-3 -14 -10 -26 -14 -26 -5 0 -3 13 3
30 13 35 21 33 11 -4z m80 0 c-3 -15 -8 -25 -11 -23 -2 3 -1 17 3 31 3 15 8
25 11 23 2 -3 1 -17 -3 -31z m-3819 -26 c-27 -12 -43 -12 -25 0 8 5 22 9 30 9
10 0 8 -3 -5 -9z m3757 -35 c-2 -19 -8 -35 -13 -35 -12 0 -11 12 1 44 13 35
17 33 12 -9z m-3782 10 c0 -2 -10 -9 -22 -15 -22 -11 -22 -10 -4 4 21 17 26
19 26 11z m164 -20 c3 -8 1 -15 -4 -15 -6 0 -10 7 -10 15 0 8 2 15 4 15 2 0 6
-7 10 -15z m-115 -14 c10 -6 3 -9 -22 -8 -22 1 -32 4 -24 9 16 10 29 10 46 -1z
m181 -12 c0 -6 -4 -7 -10 -4 -5 3 -10 11 -10 16 0 6 5 7 10 4 6 -3 10 -11 10
-16z m-298 -32 c-12 -13 -22 -29 -22 -35 0 -7 -4 -12 -10 -12 -13 0 -13 6 1
33 13 23 28 37 43 37 5 0 0 -10 -12 -23z m65 -19 c-3 -7 -5 -2 -5 12 0 14 2
19 5 13 2 -7 2 -19 0 -25z m-47 -30 c0 -18 -2 -20 -9 -8 -6 8 -7 18 -5 22 9
14 14 9 14 -14z m3882 -57 c-5 -3 -12 -13 -15 -21 -4 -12 -6 -11 -6 3 -1 24 3
32 14 29 6 -2 5 2 -2 9 -9 9 -9 17 0 33 11 20 12 19 15 -13 2 -19 -1 -37 -6
-40z m-3835 35 c-21 -13 -49 -34 -64 -47 -21 -20 -25 -21 -20 -6 4 10 7 23 7
28 0 5 8 9 18 9 9 0 31 9 47 19 17 11 35 20 40 20 6 0 -7 -10 -28 -23z m48
-16 c-3 -5 -16 -10 -28 -9 -21 0 -21 1 -2 9 28 12 37 12 30 0z m0 -50 c-3 -5
-11 -10 -16 -10 -6 0 -7 5 -4 10 3 6 11 10 16 10 6 0 7 -4 4 -10z m-272 -20
c-4 -14 3 -30 17 -45 26 -28 17 -34 -12 -8 -18 16 -24 53 -11 66 10 11 11 8 6
-13z m2057 -105 c-7 -8 -18 -15 -24 -15 -6 0 -2 7 8 15 25 19 32 19 16 0z
m-1585 -165 c-3 -5 -16 -15 -28 -21 -19 -9 -19 -8 3 10 28 23 34 26 25 11z
m1270 -10 c3 -5 1 -10 -4 -10 -6 0 -11 5 -11 10 0 6 2 10 4 10 3 0 8 -4 11
-10z m-458 -76 c-31 -19 -57 -38 -57 -40 0 -3 7 -12 15 -20 23 -24 18 -40 -17
-57 -42 -20 -51 -10 -39 43 10 45 33 71 86 95 61 29 69 15 12 -21z m108 6 c3
-5 1 -10 -4 -10 -6 0 -11 5 -11 10 0 6 2 10 4 10 3 0 8 -4 11 -10z m-805 -10
c-8 -5 -19 -10 -25 -10 -5 0 -3 5 5 10 8 5 20 10 25 10 6 0 3 -5 -5 -10z m851
-7 c-6 -10 -33 -43 -61 -73 -40 -43 -53 -51 -60 -40 -6 10 1 25 26 52 19 21
34 43 34 50 0 6 3 9 6 5 8 -8 -33 -74 -54 -87 -9 -5 -12 -10 -5 -10 6 0 34 27
63 60 53 61 69 74 51 43z m353 2 c-4 -8 -7 -15 -9 -15 -2 0 -5 7 -9 15 -3 9 0
15 9 15 9 0 12 -6 9 -15z m-1141 -109 c-18 -26 -33 -33 -33 -17 0 4 10 21 22
36 27 34 37 16 11 -19z m744 12 c-3 -8 -6 -5 -6 6 -1 11 2 17 5 13 3 -3 4 -12
1 -19z m393 -28 c-9 -16 -15 -18 -30 -10 -29 16 -24 30 10 30 28 0 30 -2 20
-20z m-490 -10 c8 -5 11 -10 5 -10 -5 0 -17 5 -25 10 -8 5 -10 10 -5 10 6 0
17 -5 25 -10z m-510 -29 c0 -10 -8 -25 -17 -32 -15 -12 -16 -12 -10 4 4 10 7
28 7 38 0 11 5 17 10 14 6 -3 10 -14 10 -24z m201 -8 c13 -15 12 -15 -8 -4
-24 12 -29 21 -14 21 5 0 15 -7 22 -17z m-101 -39 c0 -7 -4 -16 -10 -19 -5 -3
-10 0 -10 7 0 7 -3 24 -6 38 -5 24 -5 24 10 6 9 -11 16 -25 16 -32z m-156 -6
c-10 -18 -19 -27 -22 -20 -4 14 26 67 35 59 2 -3 -3 -20 -13 -39z m215 2 c0
-10 -3 -8 -9 5 -12 27 -12 43 0 25 5 -8 9 -22 9 -30z m326 20 c3 -5 1 -10 -4
-10 -6 0 -11 5 -11 10 0 6 2 10 4 10 3 0 8 -4 11 -10z m-47 -18 c2 -7 -2 -10
-12 -6 -9 3 -16 11 -16 16 0 13 23 5 28 -10z m-513 -146 c-7 -45 -7 -45 -46
-43 -21 1 -39 6 -39 12 0 10 83 86 88 80 2 -2 0 -24 -3 -49z m456 -149 c-10
-9 -11 -8 -5 6 3 10 9 15 12 12 3 -3 0 -11 -7 -18z m-21 -3 c0 -8 -19 -13 -24
-6 -3 5 1 9 9 9 8 0 15 -2 15 -3z m-380 -53 c3 -1 -6 -10 -20 -21 -36 -27 -17
-36 25 -11 20 11 38 21 41 21 8 0 -30 -37 -50 -47 -12 -7 -15 -13 -7 -17 6 -4
22 4 36 18 16 16 25 20 25 11 0 -29 -146 -86 -184 -72 -21 8 -27 47 -7 47 9 0
34 18 56 40 26 27 45 38 59 35 12 -2 23 -4 26 -4z m205 -61 c-3 -5 -10 -10
-15 -10 -5 0 -21 -11 -36 -25 -15 -14 -39 -28 -53 -31 -14 -4 -31 -13 -38 -21
-7 -9 -13 -11 -18 -3 -7 12 -25 4 -25 -11 0 -6 5 -7 12 -3 7 4 8 3 4 -4 -4 -6
-13 -9 -21 -5 -19 7 -19 6 3 31 13 15 22 18 29 11 8 -8 11 -6 10 7 -2 18 3 20
51 23 12 0 21 6 20 12 -2 6 13 17 32 24 44 17 53 18 45 5z m569 -99 c3 -5 -2
-15 -12 -22 -15 -12 -16 -12 -5 2 7 9 10 19 6 22 -3 4 -4 7 0 7 3 0 8 -4 11
-9z m-814 -62 c0 -6 -4 -8 -9 -4 -5 3 -12 1 -15 -4 -5 -8 -56 -13 -56 -5 0 7
65 31 73 27 4 -2 7 -9 7 -14z"/>
<path d="M1265 4560 c-8 -13 5 -13 25 0 13 8 13 10 -2 10 -9 0 -20 -4 -23 -10z"/>
<path d="M3190 3330 c27 -21 75 -26 86 -9 10 17 -16 29 -66 29 l-45 0 25 -20z"/>
<path d="M2804 3255 c11 -8 27 -15 35 -15 10 1 7 6 -9 15 -33 19 -50 18 -26 0z"/>
<path d="M4248 1747 c-3 -14 -2 -31 2 -37 5 -7 9 -2 12 13 3 14 2 31 -2 37 -5
7 -9 2 -12 -13z"/>
<path d="M4142 1720 c0 -14 2 -19 5 -12 2 6 2 18 0 25 -3 6 -5 1 -5 -13z"/>
<path d="M4117 1313 c-4 -3 -7 -11 -7 -17 0 -6 5 -5 12 2 6 6 9 14 7 17 -3 3
-9 2 -12 -2z"/>
<path d="M1685 4190 c-10 -11 -16 -22 -13 -25 3 -3 13 6 22 20 20 30 16 32 -9
5z"/>
<path d="M1540 4018 c0 -11 22 -10 39 1 10 7 7 9 -12 8 -15 -1 -27 -5 -27 -9z"/>
<path d="M1598 3923 c7 -3 16 -2 19 1 4 3 -2 6 -13 5 -11 0 -14 -3 -6 -6z"/>
<path d="M5550 3840 c1 -8 7 -26 14 -39 14 -26 10 -65 -6 -55 -5 4 -2 -8 7
-26 9 -18 12 -29 7 -26 -6 4 -13 3 -16 -2 -7 -11 6 -30 24 -34 24 -5 14 151
-11 177 -14 15 -19 16 -19 5z"/>
<path d="M5749 3632 c25 -36 51 -58 51 -44 0 14 -49 72 -62 72 -5 0 0 -13 11
-28z"/>
<path d="M5814 3433 c18 -35 45 -70 46 -60 0 8 -51 87 -57 87 -2 0 3 -12 11
-27z"/>
<path d="M5786 3345 c9 -14 18 -25 20 -25 2 0 -2 11 -8 25 -6 14 -15 25 -20
25 -5 0 -1 -11 8 -25z"/>
<path d="M5925 3327 c10 -15 20 -25 23 -22 3 3 -5 16 -17 28 l-23 22 17 -28z"/>
<path d="M5980 3347 c0 -3 16 -25 35 -49 49 -60 49 -60 62 -88 7 -14 12 -18
12 -10 1 19 -27 69 -59 107 -25 29 -50 49 -50 40z"/>
<path d="M6020 3246 c0 -20 53 -103 65 -103 17 0 9 17 -17 35 -10 7 -18 19
-18 25 -1 13 -30 56 -30 43z"/>
<path d="M5604 3080 c0 -11 3 -20 7 -20 4 0 9 9 12 20 3 12 0 20 -7 20 -6 0
-12 -9 -12 -20z"/>
<path d="M1865 1821 c-3 -5 -1 -12 5 -16 5 -3 10 1 10 9 0 18 -6 21 -15 7z"/>
<path d="M1753 1695 c0 -22 2 -30 4 -17 2 12 2 30 0 40 -3 9 -5 -1 -4 -23z"/>
<path d="M67 6354 c-27 -8 -18 -46 13 -51 13 -2 29 -8 34 -13 6 -6 24 -10 42
-10 20 0 34 -6 38 -16 3 -8 10 -12 16 -9 5 3 10 1 10 -5 0 -7 8 -9 20 -5 11 4
20 2 20 -4 0 -6 6 -11 13 -11 6 0 21 -8 32 -16 19 -15 19 -15 -10 -9 -29 5
-30 5 -5 -6 14 -7 31 -11 37 -10 7 1 23 -7 35 -19 16 -15 24 -17 30 -8 9 15
11 1 8 -46 -2 -35 28 -106 45 -106 7 0 15 -7 19 -15 3 -8 9 -14 13 -13 4 1 17
-3 28 -9 31 -17 112 -27 119 -14 13 21 -5 33 -21 14 -14 -17 -14 -17 -9 0 4
11 1 17 -7 15 -25 -5 -67 13 -78 33 -14 26 6 79 30 79 9 0 24 12 35 26 18 25
18 26 -5 50 -12 13 -28 24 -34 24 -6 0 -40 15 -75 33 -36 18 -81 39 -100 47
-19 7 -62 27 -95 43 -59 28 -155 43 -198 31z m473 -228 c0 -2 -7 -7 -16 -10
-8 -3 -12 -2 -9 4 6 10 25 14 25 6z"/>
<path d="M648 5953 c7 -3 16 -2 19 1 4 3 -2 6 -13 5 -11 0 -14 -3 -6 -6z"/>
<path d="M4764 5576 c-4 -11 -2 -21 7 -27 18 -11 24 5 10 28 -9 17 -10 17 -17
-1z"/>
<path d="M4720 5280 c0 -5 5 -10 11 -10 5 0 7 5 4 10 -3 6 -8 10 -11 10 -2 0
-4 -4 -4 -10z"/>
<path d="M4530 5236 c0 -2 18 -22 40 -45 47 -48 54 -38 9 14 -27 30 -49 44
-49 31z"/>
<path d="M1270 5165 c0 -8 2 -15 4 -15 2 0 6 7 10 15 3 8 1 15 -4 15 -6 0 -10
-7 -10 -15z"/>
<path d="M4750 5059 c0 -5 5 -7 10 -4 6 3 10 8 10 11 0 2 -4 4 -10 4 -5 0 -10
-5 -10 -11z"/>
<path d="M6292 5020 c0 -14 2 -19 5 -12 2 6 2 18 0 25 -3 6 -5 1 -5 -13z"/>
<path d="M6302 4970 c0 -14 2 -19 5 -12 2 6 2 18 0 25 -3 6 -5 1 -5 -13z"/>
<path d="M4980 4820 c0 -5 5 -10 11 -10 5 0 7 5 4 10 -3 6 -8 10 -11 10 -2 0
-4 -4 -4 -10z"/>
<path d="M6332 4780 c0 -19 2 -27 5 -17 2 9 2 25 0 35 -3 9 -5 1 -5 -18z"/>
<path d="M6343 4655 c0 -38 2 -53 4 -32 2 20 2 52 0 70 -2 17 -4 1 -4 -38z"/>
<path d="M5150 4706 c0 -2 11 -24 25 -47 30 -53 33 -44 5 11 -18 35 -30 49
-30 36z"/>
<path d="M6292 4653 c-6 -12 -12 -29 -12 -38 0 -15 1 -15 16 -1 8 9 14 26 12
38 l-3 23 -13 -22z"/>
<path d="M5200 4568 c0 -7 9 -26 20 -43 14 -20 20 -25 20 -13 0 9 -4 20 -10
23 -5 3 -10 15 -10 26 0 10 -4 19 -10 19 -5 0 -10 -6 -10 -12z"/>
<path d="M6296 4523 c-4 -15 -10 -37 -13 -48 -5 -17 -4 -18 9 -7 18 15 28 56
18 72 -5 7 -10 1 -14 -17z"/>
<path d="M6352 4360 c0 -14 2 -19 5 -12 2 6 2 18 0 25 -3 6 -5 1 -5 -13z"/>
<path d="M6295 4310 c-7 -11 2 -30 13 -30 4 0 8 9 9 20 2 21 -11 27 -22 10z"/>
<path d="M6351 4304 c0 -11 3 -14 6 -6 3 7 2 16 -1 19 -3 4 -6 -2 -5 -13z"/>
<path d="M6353 4200 c0 -41 2 -58 4 -37 2 20 2 54 0 75 -2 20 -4 3 -4 -38z"/>
<path d="M6341 4034 c0 -11 3 -14 6 -6 3 7 2 16 -1 19 -3 4 -6 -2 -5 -13z"/>
<path d="M6300 3961 c0 -5 5 -13 10 -16 6 -3 10 -2 10 4 0 5 -4 13 -10 16 -5
3 -10 2 -10 -4z"/>
<path d="M6277 3653 c-4 -3 -7 -11 -7 -17 0 -6 5 -5 12 2 6 6 9 14 7 17 -3 3
-9 2 -12 -2z"/>
<path d="M6271 3604 c0 -11 3 -14 6 -6 3 7 2 16 -1 19 -3 4 -6 -2 -5 -13z"/>
<path d="M6351 3594 c0 -11 3 -14 6 -6 3 7 2 16 -1 19 -3 4 -6 -2 -5 -13z"/>
<path d="M6337 3536 c-4 -10 -5 -21 -2 -24 9 -9 17 6 13 25 -3 17 -4 17 -11
-1z"/>
<path d="M6325 3461 c-3 -5 -1 -12 5 -16 5 -3 10 1 10 9 0 18 -6 21 -15 7z"/>
<path d="M6316 3391 c-4 -7 -5 -15 -2 -18 9 -9 19 4 14 18 -4 11 -6 11 -12 0z"/>
<path d="M6312 3320 c0 -14 2 -19 5 -12 2 6 2 18 0 25 -3 6 -5 1 -5 -13z"/>
<path d="M6297 3271 c-2 -10 -1 -25 4 -32 6 -10 9 -4 9 19 0 36 -5 42 -13 13z"/>
<path d="M6355 1362 c-46 -43 -86 -89 -67 -78 8 5 11 0 9 -16 -4 -27 -63 -70
-86 -64 -21 7 -254 -215 -246 -235 3 -8 7 -27 9 -44 7 -44 11 -59 19 -72 4 -6
8 -29 9 -52 1 -23 7 -42 15 -45 7 -3 13 -10 13 -16 0 -6 -4 -9 -9 -6 -5 4 -7
-3 -4 -13 4 -17 0 -20 -26 -19 -22 1 -30 5 -27 14 3 8 -2 17 -11 22 -12 7 -13
14 -5 27 7 14 6 22 -4 32 -12 12 -11 18 1 37 13 20 13 23 0 23 -8 0 -11 -5 -8
-11 3 -6 2 -8 -2 -3 -10 9 -18 40 -19 77 -1 24 -5 21 -61 -35 -34 -33 -75 -71
-93 -85 -17 -14 -32 -31 -32 -39 0 -8 -6 -11 -16 -7 -8 3 -12 2 -9 -4 3 -5 -5
-15 -19 -22 -14 -6 -26 -15 -26 -19 0 -10 -199 -206 -216 -213 -8 -3 -14 -10
-14 -16 0 -5 -6 -10 -14 -10 -8 0 -17 -7 -20 -16 -3 -8 -11 -12 -17 -8 -7 4
-9 3 -6 -3 4 -6 -41 -55 -100 -109 -59 -55 -125 -118 -147 -142 -21 -23 -42
-42 -47 -42 -4 0 -39 -32 -77 -72 -64 -65 -72 -70 -89 -57 -16 13 -17 12 -4
-3 12 -17 44 -18 402 -18 214 0 389 3 389 8 0 4 -5 14 -10 22 -8 12 -10 12
-10 1 0 -8 -3 -11 -6 -8 -4 4 -1 14 7 24 12 15 12 16 -5 10 -16 -6 -17 -5 -6
8 7 8 9 15 4 15 -15 0 -16 82 -2 92 10 8 10 11 1 15 -7 2 -13 11 -13 19 0 9
-4 12 -10 9 -13 -8 -13 1 1 23 9 14 8 25 -4 49 -17 32 -12 50 9 32 9 -7 14 -5
19 11 7 22 37 24 41 2 1 -7 0 -8 -3 -2 -2 5 -9 10 -14 10 -6 0 -8 -4 -4 -9 3
-5 1 -12 -5 -16 -5 -3 -10 -11 -10 -17 0 -6 7 -5 17 3 15 13 15 12 4 -8 -7
-15 -8 -23 -1 -23 5 0 10 4 10 10 0 5 6 7 14 4 8 -3 16 2 19 13 3 10 4 1 2
-21 l-2 -38 23 28 23 29 -17 -37 c-9 -21 -22 -37 -29 -38 -6 0 -14 -4 -17 -9
-4 -5 4 -7 16 -3 16 4 19 2 13 -8 -5 -8 -4 -11 3 -6 6 3 12 1 15 -6 2 -7 2 -2
0 12 -2 18 3 29 19 39 l23 14 -20 -22 c-15 -18 -16 -24 -6 -30 8 -5 11 -17 6
-30 -3 -12 -11 -19 -16 -16 -5 3 -6 -1 -3 -9 7 -17 20 -21 27 -8 2 4 2 0 0 -8
-2 -8 -5 -32 -7 -55 -3 -31 -2 -34 3 -10 6 29 7 30 19 8 6 -12 12 -28 11 -35
0 -7 -4 -4 -9 7 -7 17 -9 15 -9 -12 l-1 -33 93 0 c59 0 99 5 111 13 16 12 16
14 -4 34 -26 29 -25 33 5 33 23 0 29 -8 26 -37 -1 -6 3 -14 9 -18 6 -4 10 -3
9 2 -1 4 0 11 1 16 5 14 8 27 9 40 1 11 10 11 50 -2 28 -8 49 -17 48 -21 -3
-10 40 -60 53 -60 6 0 8 6 4 12 -6 10 -4 11 7 1 8 -8 42 -13 91 -13 l78 0 0
700 c0 385 -1 700 -2 700 -2 -1 -21 -18 -43 -38z m-306 -492 c40 -153 42 -162
38 -167 -5 -4 -24 46 -30 82 -2 11 -9 34 -16 50 -16 38 -41 134 -41 155 0 29
26 -35 49 -120z m-19 -184 c0 -3 -4 -8 -10 -11 -5 -3 -10 -1 -10 4 0 6 5 11
10 11 6 0 10 -2 10 -4z m-27 -32 c11 -4 16 -13 12 -22 -4 -12 -3 -12 9 -3 11
9 15 4 24 -29 5 -22 8 -49 5 -60 -3 -13 0 -20 8 -20 9 -1 8 -4 -4 -11 -9 -6
-15 -14 -13 -18 3 -5 -6 -6 -20 -3 -19 3 -23 9 -18 24 5 18 4 19 -18 7 -20
-11 -22 -10 -10 3 14 17 6 51 -10 42 -7 -5 -7 -1 0 12 6 11 7 27 1 42 -8 22
-8 23 6 12 11 -9 15 -9 15 -1 0 6 -7 14 -15 17 -8 4 -15 11 -15 16 0 5 6 7 13
4 6 -3 20 -9 30 -12z m130 -34 c3 -11 2 -20 -3 -20 -4 0 -10 9 -13 20 -3 11
-2 20 3 20 4 0 10 -9 13 -20z m34 -102 c-3 -8 -6 -5 -6 6 -1 11 2 17 5 13 3
-3 4 -12 1 -19z m-107 -70 c0 -4 -7 -8 -15 -8 -8 0 -15 4 -15 8 0 5 7 9 15 9
8 0 15 -4 15 -9z m17 -20 c-3 -8 -6 -5 -6 6 -1 11 2 17 5 13 3 -3 4 -12 1 -19z
m-4 -34 c3 -3 3 -12 1 -18 -6 -15 -54 -9 -54 6 0 5 10 6 21 3 15 -5 19 -4 15
4 -7 11 6 16 17 5z m-17 -45 c3 -6 2 -15 -4 -21 -6 -6 -11 -2 -15 11 -5 22 7
29 19 10z m29 -30 c-4 -5 -2 -9 4 -9 7 0 7 -8 1 -25 -7 -18 -6 -25 3 -25 6 0
22 -21 35 -45 26 -53 26 -55 6 -55 -8 0 -13 -4 -9 -10 8 -12 -33 -53 -45 -45
-6 4 -13 -1 -16 -9 -3 -9 -10 -16 -15 -16 -5 0 -4 11 1 25 6 16 6 25 0 25 -6
0 -10 -6 -10 -14 0 -16 -18 -31 -27 -23 -3 3 4 19 16 36 14 20 17 31 9 33 -9
3 -8 16 4 51 8 26 12 47 9 47 -10 0 -34 60 -27 67 3 4 6 1 6 -6 0 -6 8 -11 18
-9 13 2 16 -3 14 -22 -1 -19 0 -22 8 -10 5 8 6 26 3 39 -4 17 -2 22 6 17 6 -4
9 -12 6 -17z m-442 -70 c-8 -8 -13 -7 -18 2 -5 8 -4 10 3 5 7 -4 12 -2 12 5 0
7 3 9 7 6 4 -4 2 -12 -4 -18z m174 -81 c-3 -8 -6 -5 -6 6 -1 11 2 17 5 13 3
-3 4 -12 1 -19z m345 -28 c4 -28 1 -33 -19 -36 -16 -3 -21 0 -17 11 7 18 24
20 24 3 0 -6 3 -8 6 -5 4 4 1 13 -6 22 -8 10 -9 15 -1 15 6 0 12 -4 13 -10z
m36 -52 c7 -7 12 -21 11 -32 0 -17 -2 -16 -11 7 -5 15 -14 25 -19 21 -5 -3 -9
0 -9 5 0 14 13 14 28 -1z"/>
<path d="M6025 540 c-3 -5 -1 -10 4 -10 6 0 11 5 11 10 0 6 -2 10 -4 10 -3 0
-8 -4 -11 -10z"/>
<path d="M6078 226 c-19 -14 -23 -26 -10 -26 4 0 13 9 20 20 14 23 13 24 -10
6z"/>
<path d="M6081 134 c0 -11 3 -14 6 -6 3 7 2 16 -1 19 -3 4 -6 -2 -5 -13z"/>
<path d="M5975 770 c3 -5 8 -10 11 -10 2 0 4 5 4 10 0 6 -5 10 -11 10 -5 0 -7
-4 -4 -10z"/>
<path d="M4830 750 c0 -5 5 -10 10 -10 6 0 10 5 10 10 0 6 -4 10 -10 10 -5 0
-10 -4 -10 -10z"/>
<path d="M4526 547 c3 -10 9 -15 12 -12 3 3 0 11 -7 18 -10 9 -11 8 -5 -6z"/>
<path d="M5710 255 c-8 -9 -8 -15 -2 -15 12 0 26 19 19 26 -2 2 -10 -2 -17
-11z"/>
<path d="M5701 214 c0 -11 3 -14 6 -6 3 7 2 16 -1 19 -3 4 -6 -2 -5 -13z"/>
<path d="M5706 45 c-3 -8 -1 -15 4 -15 6 0 10 7 10 15 0 8 -2 15 -4 15 -2 0
-6 -7 -10 -15z"/>
<path d="M5710 10 c0 -5 5 -10 10 -10 6 0 10 5 10 10 0 6 -4 10 -10 10 -5 0
-10 -4 -10 -10z"/>
</g>
</svg>
